<?xml version="1.0" standalone="no"?>
<!DOCTYPE svg PUBLIC "-//W3C//DTD SVG 20010904//EN"
 "http://www.w3.org/TR/2001/REC-SVG-20010904/DTD/svg10.dtd">
<svg version="1.0" xmlns="http://www.w3.org/2000/svg"
 width="591.000000pt" height="632.000000pt" viewBox="0 0 591.000000 632.000000"
 preserveAspectRatio="xMidYMid meet">

<g transform="translate(0.000000,632.000000) scale(0.100000,-0.100000)"
fill="#000000" stroke="none">
<path d="M845 6278 c-3 -24 -80 -758 -170 -1633 -91 -875 -168 -1614 -171
-1642 l-6 -53 2184 0 2185 0 6 -62 c15 -154 94 -279 186 -294 l43 -7 -7 -55
c-4 -31 -15 -76 -25 -101 -16 -43 -20 -45 -71 -56 -196 -40 -429 -275 -594
-600 l-53 -105 -259 286 -258 285 -3 -370 -2 -371 -54 0 c-41 0 -70 -8 -126
-37 -160 -79 -477 -452 -695 -818 l-66 -110 -112 -23 c-62 -13 -143 -30 -181
-39 l-68 -15 4 -58 4 -59 -35 -5 c-66 -11 -365 -46 -386 -46 -20 0 -28 22 -88
248 -37 136 -72 264 -77 285 -7 22 -17 37 -27 37 -13 0 -15 -14 -9 -112 3 -62
9 -238 12 -390 l7 -278 82 0 c76 0 83 2 88 21 5 20 10 21 59 16 29 -4 126 -7
216 -7 158 0 162 -1 162 -21 0 -19 4 -21 48 -15 26 3 297 8 602 12 579 7 863
-2 1010 -32 122 -24 423 -30 558 -10 138 21 264 56 351 100 63 31 69 32 126
23 98 -16 166 3 232 65 29 28 68 74 87 102 58 88 66 132 66 384 0 237 19 430
44 444 46 26 143 108 167 141 46 63 61 127 66 284 6 161 -6 266 -44 388 -66
211 -186 352 -362 426 -93 38 -123 86 -137 219 l-6 55 83 85 c68 68 94 105
135 186 78 152 91 253 45 346 -18 37 -18 40 135 1510 84 810 154 1483 154
1496 l0 22 -2524 0 -2525 0 -6 -42z m4905 0 c0 -13 -7 -84 -15 -158 -8 -74
-15 -138 -15 -142 0 -5 -1101 -8 -2446 -8 l-2447 0 6 58 c4 31 12 105 18 165
l12 107 2443 0 2444 0 0 -22z m-34 -345 c-3 -16 -64 -606 -137 -1313 -73 -707
-135 -1289 -140 -1293 -14 -17 -51 5 -107 65 -82 87 -155 115 -228 88 -15 -6
-28 -9 -30 -7 -4 4 22 266 31 320 l5 27 -695 0 -694 0 -5 -32 c-7 -40 -56
-518 -56 -541 0 -16 37 -17 473 -17 l473 0 16 -34 c37 -77 114 -141 198 -162
25 -6 44 -14 43 -18 -2 -3 -3 -15 -3 -26 0 -20 -7 -20 -2170 -20 -1729 0
-2170 3 -2170 13 -1 19 302 2951 306 2965 3 9 501 12 2449 12 l2447 0 -6 -27z
m-629 -2155 c-3 -18 -12 -93 -18 -166 -7 -74 -18 -141 -25 -150 -13 -18 -30
-18 -187 -6 -82 6 -91 4 -143 -21 -63 -31 -100 -78 -110 -142 l-7 -43 -458 0
c-430 0 -459 1 -459 18 0 9 12 135 27 280 l27 262 679 0 679 0 -5 -32z m230
-714 c14 -23 15 -34 6 -88 -6 -33 -15 -70 -19 -81 -7 -18 -6 -18 20 3 80 62
122 -28 50 -107 -34 -38 -34 -40 -15 -50 20 -11 19 -12 -5 -36 -23 -23 -25
-30 -18 -83 10 -79 40 -161 70 -193 25 -26 25 -28 10 -57 -35 -68 -127 -122
-208 -122 -57 0 -139 68 -139 116 0 10 9 44 20 74 11 30 20 76 21 101 0 46 0
47 55 74 30 14 55 31 55 36 0 5 -23 -3 -50 -17 -42 -22 -60 -26 -102 -22 -44
5 -57 11 -88 45 -59 62 -107 224 -98 330 l3 38 70 7 c39 4 117 18 175 32 140
33 165 33 187 0z m212 -695 c96 -46 203 -157 259 -269 119 -241 135 -635 32
-785 -108 -156 -610 -375 -861 -375 l-39 0 0 88 0 87 255 160 c141 88 286 179
323 202 37 23 72 44 77 46 6 2 7 7 4 11 -4 4 -32 -9 -64 -29 -31 -20 -59 -34
-62 -32 -2 3 0 87 6 188 13 216 13 283 2 254 -5 -11 -11 -94 -15 -185 -4 -91
-9 -190 -13 -222 l-5 -56 -264 -164 c-178 -110 -264 -169 -266 -182 -2 -12
-15 -23 -33 -28 -26 -7 -41 -1 -112 47 -55 37 -93 55 -113 55 -29 0 -31 2 -26
33 3 17 7 48 10 67 3 19 13 134 21 255 17 240 32 331 65 395 24 46 22 64 -3
27 -21 -33 -53 -141 -61 -207 -3 -30 -13 -147 -21 -260 -22 -294 -24 -304 -58
-308 l-27 -3 0 143 0 143 -85 90 c-46 50 -84 96 -85 103 0 21 88 191 148 282
77 119 165 223 247 292 73 62 186 123 245 132 33 5 36 4 62 -43 31 -57 78 -83
148 -83 82 0 177 59 216 134 8 15 17 28 20 28 4 0 36 -14 73 -31z m90 -1306
c-8 -44 -14 -158 -14 -323 -2 -277 -6 -306 -56 -385 -31 -49 -32 -50 -41 -25
-27 71 -49 102 -123 175 -44 44 -111 100 -148 125 -36 25 -67 48 -67 51 0 3
42 12 92 19 113 15 129 20 100 31 -30 11 -302 189 -302 198 0 3 30 12 68 19
102 20 295 87 402 141 52 26 97 46 99 45 2 -2 -3 -34 -10 -71z m-896 -9 c52
-13 65 -13 112 1 75 21 75 21 75 -33 l0 -47 -111 -50 c-118 -52 -162 -59 -205
-30 -21 14 -24 21 -18 48 3 18 13 44 20 59 20 40 18 42 -21 18 -35 -21 -35
-21 -35 -2 0 12 12 30 27 41 28 23 44 22 156 -5z m-862 -140 c34 -37 179 -149
229 -178 l42 -24 -118 -7 c-66 -3 -189 -14 -276 -23 -114 -13 -155 -14 -150
-6 10 18 236 263 243 264 3 0 16 -12 30 -26z m1609 -536 c28 -51 25 -90 -7
-129 -40 -47 -95 -69 -180 -69 -40 0 -73 2 -73 5 0 2 35 39 78 82 59 58 85 93
102 136 l24 58 18 -23 c10 -13 28 -40 38 -60z m-2930 -153 l0 -105 -159 0
c-87 0 -186 3 -220 6 l-61 7 0 72 0 72 203 25 c111 14 210 26 220 27 15 1 17
-10 17 -104z"/>
<path d="M1209 6217 c-39 -30 -49 -79 -24 -126 28 -55 95 -46 121 15 9 20 13
48 9 61 -13 52 -69 79 -106 50z"/>
<path d="M1507 6219 c-26 -15 -46 -68 -40 -102 6 -29 45 -67 70 -67 8 0 28 13
44 29 38 38 40 91 4 126 -26 27 -49 31 -78 14z"/>
<path d="M1786 6199 c-29 -35 -33 -67 -11 -108 29 -56 98 -46 125 18 15 36 7
74 -20 101 -29 29 -64 25 -94 -11z"/>
<path d="M1155 5758 c-9 -64 -165 -1585 -165 -1608 0 -20 10 -20 1210 -20 666
0 1210 1 1211 3 0 1 40 377 88 835 l87 832 -1213 0 -1212 0 -6 -42z m1140
-494 c-5 -27 -11 -34 -29 -34 -33 0 -64 -29 -75 -67 l-10 -33 51 0 51 0 -7
-72 c-3 -39 -9 -111 -13 -160 l-6 -88 -117 0 -116 0 17 178 c9 97 22 190 29
207 30 77 89 121 179 134 52 7 58 -2 46 -65z m251 -176 c-3 -24 -11 -97 -17
-163 -5 -66 -14 -136 -20 -156 -12 -48 -47 -99 -87 -126 -33 -22 -139 -50
-149 -39 -3 3 -1 27 3 53 8 42 13 48 35 51 32 4 65 37 74 75 7 27 7 27 -44 27
-28 0 -51 4 -51 8 0 15 20 226 26 270 l5 42 115 0 115 0 -5 -42z"/>
<path d="M3915 5768 c-8 -50 -75 -701 -75 -731 l0 -27 694 0 695 0 6 43 c9 67
75 707 75 728 0 18 -21 19 -695 19 l-694 0 -6 -32z m1375 5 c1 -10 -16 -183
-37 -385 l-38 -368 -682 0 -682 0 5 33 c8 54 74 698 74 718 0 18 21 19 680 19
641 0 680 -1 680 -17z"/>
<path d="M3826 4778 c-7 -42 -76 -717 -76 -740 0 -17 40 -18 690 -18 570 0
690 2 690 13 0 8 18 184 40 392 22 208 40 380 40 382 0 1 -310 3 -690 3 l-689
0 -5 -32z m1364 5 c-1 -42 -77 -744 -82 -748 -3 -3 -306 -4 -674 -3 l-669 3
39 383 40 382 673 0 c634 0 673 -1 673 -17z"/>
<path d="M936 3883 c-2 -16 -7 -59 -11 -98 -3 -38 -8 -82 -11 -97 l-6 -28
1221 0 c1153 0 1220 1 1225 18 2 9 7 49 11 87 3 39 8 87 11 108 l6 37 -1220 0
-1220 0 -6 -27z m2420 -60 c-4 -43 -9 -93 -12 -110 l-6 -33 -1205 0 -1205 0 6
55 c3 30 9 80 12 110 l6 55 1206 0 1205 0 -7 -77z"/>
<path d="M887 3398 c-4 -40 -10 -101 -13 -135 l-7 -63 442 0 c344 0 443 3 446
13 3 6 11 67 18 135 l13 122 -446 0 -447 0 -6 -72z m879 20 c-3 -24 -9 -78
-12 -120 l-7 -78 -434 0 c-409 0 -434 1 -429 18 2 9 7 51 11 92 3 41 8 87 11
103 l6 27 430 0 430 0 -6 -42z"/>
<path d="M560 1363 c-62 -23 -99 -108 -103 -241 -1 -45 -3 -82 -5 -82 -1 0
-31 24 -65 53 -116 98 -211 147 -284 147 -26 0 -43 -8 -69 -34 -29 -29 -34
-41 -34 -80 0 -81 49 -149 155 -215 71 -45 163 -71 249 -71 l72 0 13 -75 c11
-67 52 -250 67 -297 5 -16 -2 -18 -55 -18 -52 0 -61 -3 -61 -17 1 -10 22 -108
48 -218 l48 -200 172 -3 c95 -1 172 0 172 4 0 8 88 390 96 417 5 15 -2 17 -57
17 l-62 0 7 52 c4 29 10 81 14 115 5 35 10 64 13 65 2 2 40 21 84 43 98 48
195 137 195 178 0 35 -33 67 -67 67 -37 -1 -98 -29 -156 -74 -26 -20 -49 -36
-52 -36 -3 0 -5 19 -5 43 0 123 -50 296 -108 371 -58 77 -152 114 -222 89z
m400 -930 c-1 -5 -22 -98 -48 -208 l-47 -200 -157 -3 c-157 -2 -158 -2 -163
20 -54 229 -85 366 -85 381 0 16 19 17 250 17 138 0 250 -3 250 -7z"/>
</g>
</svg>
